<svg width="8.5in" height="11in" viewBox="0 0 816 1056" xmlns="http://www.w3.org/2000/svg">
<defs>
  <marker
    style="overflow:visible"
    id="Arrow1Sstart"
    refX="0.0"
    refY="0.0"
    orient="auto">
      <path
        transform="scale(0.2) translate(6,0)"
        style="fill-rule:evenodd;fill:context-stroke;stroke:context-stroke;stroke-width:1.0pt"
        d="M 0.0,0.0 L 5.0,-5.0 L -12.5,0.0 L 5.0,5.0 L 0.0,0.0 z "
        />
    </marker>
</defs><g>
<line x1="408" x2="408" y1="384" y2="432" stroke="red" stroke-width="5" marker-start="url(#Arrow1Sstart)" />
<line x1="360" x2="408" y1="432" y2="432" stroke="green" stroke-width="5" marker-start="url(#Arrow1Sstart)" />
<text x="408" y="432.25">{T_{a,b}}</text>
</g>
<g>
<line x1="456" x2="408" y1="528" y2="528" stroke="red" stroke-width="5" marker-start="url(#Arrow1Sstart)" />
<line x1="408" x2="408" y1="480" y2="528" stroke="green" stroke-width="5" marker-start="url(#Arrow1Sstart)" />
<text x="408" y="528.25">{T_{b,a}}</text>
</g>
<g>
<line x1="360" x2="408" y1="336" y2="336" stroke="red" stroke-width="5" marker-start="url(#Arrow1Sstart)" />
<line x1="408" x2="408" y1="384" y2="336" stroke="green" stroke-width="5" marker-start="url(#Arrow1Sstart)" />
<text x="408" y="336.25">{T_{b,c}}</text>
</g>
<g>
<line x1="408" x2="408" y1="384" y2="432" stroke="red" stroke-width="5" marker-start="url(#Arrow1Sstart)" />
<line x1="360" x2="408" y1="432" y2="432" stroke="green" stroke-width="5" marker-start="url(#Arrow1Sstart)" />
<text x="408" y="432.25">{T_{c,b}}</text>
</g>
<g>
<line x1="360" x2="408" y1="336" y2="336" stroke="red" stroke-width="5" marker-start="url(#Arrow1Sstart)" />
<line x1="408" x2="408" y1="384" y2="336" stroke="green" stroke-width="5" marker-start="url(#Arrow1Sstart)" />
<text x="408" y="336.25">{T_{a,c}}</text>
</g>
<g>
<line x1="456" x2="408" y1="528" y2="528" stroke="red" stroke-width="5" marker-start="url(#Arrow1Sstart)" />
<line x1="408" x2="408" y1="480" y2="528" stroke="green" stroke-width="5" marker-start="url(#Arrow1Sstart)" />
<text x="408" y="528.25">{T_{c,a}}</text>
</g>
<circle cx="504" cy="432" r="3" stroke="purple" fill="purple" stroke-width="1"/>
<circle cx="408" cy="624" r="3" stroke="brown" fill="brown" stroke-width="1"/>
<circle cx="312" cy="432" r="3" stroke="orange" fill="orange" stroke-width="1"/>
<line x1="475.882" x2="408" y1="460.118" y2="528" stroke="brown" stroke-width="5" marker-start="url(#Arrow1Sstart)" />
<line x1="312" x2="408" y1="432" y2="528" stroke="purple" stroke-width="5" marker-start="url(#Arrow1Sstart)" />
<line x1="312" x2="408" y1="240" y2="336" stroke="orange" stroke-width="5" marker-start="url(#Arrow1Sstart)" />
</svg>